<?xml version="1.0" encoding="UTF-8"?>
<svg xmlns="http://www.w3.org/2000/svg" xmlns:xlink="http://www.w3.org/1999/xlink" width="300pt" height="150pt" viewBox="0 0 300 150" version="1.1">
<g id="surface1">
<path style=" stroke:none;fill-rule:evenodd;fill:rgb(0.392157%,0.392157%,0.392157%);fill-opacity:1;" d="M 81.613281 125.21875 L 4.621094 125.21875 L 4.621094 129.253906 L 81.613281 129.253906 Z M 4.621094 44.835938 L 61.515625 44.835938 L 61.515625 64.933594 L 4.621094 64.933594 Z M 24.71875 85.035156 L 81.613281 85.035156 L 81.613281 105.136719 L 24.71875 105.136719 Z M 103.125 64.5 L 103.125 77.144531 L 109.078125 77.144531 C 110.789062 77.144531 112.351562 76.441406 113.476562 75.316406 C 114.601562 74.191406 115.304688 72.628906 115.304688 70.921875 L 115.304688 70.710938 C 115.304688 69 114.601562 67.441406 113.476562 66.316406 C 112.351562 65.191406 110.804688 64.5 109.09375 64.5 Z M 184.816406 35.324219 C 184.816406 33.855469 184.546875 32.460938 184.003906 31.125 C 183.464844 29.804688 182.699219 28.621094 181.695312 27.585938 C 180.703125 26.566406 179.578125 25.785156 178.289062 25.230469 C 177 24.675781 175.636719 24.40625 174.210938 24.40625 C 172.785156 24.40625 171.421875 24.675781 170.113281 25.214844 C 168.824219 25.753906 167.671875 26.550781 166.664062 27.585938 C 165.660156 28.605469 164.878906 29.773438 164.355469 31.09375 C 163.828125 32.414062 163.558594 33.824219 163.558594 35.308594 C 163.558594 36.78125 163.828125 38.175781 164.355469 39.480469 C 164.878906 40.785156 165.660156 41.96875 166.664062 42.988281 C 167.671875 44.023438 168.808594 44.820312 170.101562 45.359375 C 171.375 45.898438 172.753906 46.171875 174.195312 46.171875 C 175.621094 46.171875 176.953125 45.898438 178.246094 45.359375 C 179.519531 44.820312 180.675781 44.023438 181.695312 42.988281 C 182.699219 41.953125 183.480469 40.785156 184.003906 39.464844 C 184.546875 38.160156 184.816406 36.78125 184.816406 35.324219 Z M 189.75 35.324219 C 189.75 37.394531 189.359375 39.34375 188.59375 41.191406 C 187.816406 43.035156 186.691406 44.683594 185.203125 46.125 C 183.71875 47.566406 182.023438 48.675781 180.136719 49.441406 C 178.261719 50.203125 176.28125 50.59375 174.226562 50.59375 C 172.125 50.59375 170.128906 50.203125 168.226562 49.441406 C 166.320312 48.660156 164.65625 47.566406 163.183594 46.125 C 161.699219 44.683594 160.574219 43.050781 159.808594 41.21875 C 159.046875 39.390625 158.65625 37.441406 158.65625 35.339844 C 158.65625 33.253906 159.046875 31.289062 159.808594 29.460938 C 160.574219 27.613281 161.699219 25.964844 163.183594 24.511719 C 164.671875 23.070312 166.351562 21.960938 168.226562 21.210938 C 170.101562 20.460938 172.09375 20.085938 174.210938 20.085938 C 176.296875 20.085938 178.289062 20.460938 180.164062 21.210938 C 182.039062 21.960938 183.71875 23.054688 185.203125 24.511719 C 186.691406 25.980469 187.816406 27.644531 188.59375 29.488281 C 189.359375 31.320312 189.75 33.269531 189.75 35.324219 Z M 121.378906 20.699219 L 126.058594 20.699219 L 133.109375 39.058594 L 140.550781 19.558594 L 147.988281 39.058594 L 155.039062 20.699219 L 159.71875 20.699219 L 148.484375 50.953125 L 140.550781 30.988281 L 132.613281 50.953125 Z M 201.210938 89.460938 L 201.210938 60.34375 L 205.933594 60.34375 L 205.933594 85.214844 L 218.550781 85.214844 L 218.550781 89.445312 L 201.210938 89.445312 Z M 168.074219 74.953125 C 168.074219 73.484375 167.804688 72.089844 167.265625 70.753906 C 166.726562 69.433594 165.960938 68.25 164.953125 67.214844 C 163.964844 66.195312 162.839844 65.414062 161.550781 64.859375 C 160.246094 64.304688 158.894531 64.035156 157.46875 64.035156 C 156.046875 64.035156 154.679688 64.304688 153.375 64.84375 C 152.085938 65.386719 150.929688 66.179688 149.925781 67.214844 C 148.921875 68.234375 148.140625 69.40625 147.613281 70.726562 C 147.089844 72.046875 146.820312 73.453125 146.820312 74.941406 C 146.820312 76.410156 147.089844 77.804688 147.613281 79.109375 C 148.140625 80.414062 148.921875 81.601562 149.925781 82.621094 C 150.929688 83.65625 152.070312 84.449219 153.359375 84.988281 C 154.636719 85.53125 156.015625 85.800781 157.453125 85.800781 C 158.878906 85.800781 160.214844 85.53125 161.503906 84.988281 C 162.78125 84.449219 163.933594 83.65625 164.953125 82.621094 C 165.960938 81.585938 166.738281 80.414062 167.265625 79.09375 C 167.804688 77.804688 168.074219 76.425781 168.074219 74.953125 Z M 172.996094 74.953125 C 172.996094 77.023438 172.605469 78.976562 171.839844 80.820312 C 171.058594 82.664062 169.933594 84.300781 168.449219 85.753906 C 166.949219 87.195312 165.269531 88.304688 163.378906 89.070312 C 161.503906 89.835938 159.523438 90.226562 157.46875 90.226562 C 155.371094 90.226562 153.375 89.835938 151.46875 89.070312 C 149.566406 88.289062 147.898438 87.195312 146.429688 85.753906 C 144.945312 84.316406 143.820312 82.679688 143.054688 80.835938 C 142.289062 79.003906 141.898438 77.054688 141.898438 74.953125 C 141.898438 72.871094 142.289062 70.90625 143.054688 69.074219 C 143.820312 67.230469 144.945312 65.578125 146.429688 64.125 C 147.914062 62.683594 149.59375 61.574219 151.484375 60.824219 C 153.359375 60.074219 155.355469 59.683594 157.46875 59.683594 C 159.554688 59.683594 161.535156 60.058594 163.425781 60.824219 C 165.300781 61.574219 166.980469 62.671875 168.464844 64.125 C 169.949219 65.59375 171.074219 67.261719 171.855469 69.105469 C 172.605469 70.949219 172.996094 72.898438 172.996094 74.953125 Z M 280.679688 129.253906 L 280.679688 115.933594 L 270.871094 100.140625 L 275.851562 100.140625 L 281.953125 110.023438 C 282.390625 110.773438 282.796875 111.554688 283.171875 112.351562 C 283.515625 111.496094 283.90625 110.683594 284.398438 109.90625 L 290.65625 100.140625 L 295.378906 100.140625 L 285.359375 115.933594 L 285.359375 129.253906 Z M 243.015625 129.253906 L 243.015625 99 L 256.019531 111.511719 L 264.675781 119.730469 L 264.675781 100.15625 L 269.023438 100.15625 L 269.023438 130.410156 L 256.019531 117.898438 L 247.363281 109.679688 L 247.363281 129.253906 Z M 226.605469 108.988281 L 222.613281 117.824219 L 230.609375 117.824219 Z M 220.84375 121.753906 L 217.46875 129.238281 L 212.503906 129.238281 L 226.605469 98.984375 L 240.703125 129.238281 L 235.738281 129.238281 L 232.363281 121.753906 Z M 173.535156 130.441406 L 164.609375 111.914062 L 160.828125 129.253906 L 156.480469 129.253906 L 163.363281 98.925781 L 173.550781 120.046875 L 183.734375 98.925781 L 190.621094 129.253906 L 186.269531 129.253906 L 182.488281 111.914062 Z M 110.878906 24.734375 L 110.878906 49.816406 L 106.15625 49.816406 L 106.15625 24.734375 L 97.410156 24.734375 L 97.410156 20.699219 L 119.625 20.699219 L 119.625 24.734375 Z M 121.816406 89.460938 L 121.816406 60.34375 L 139.996094 60.34375 L 139.996094 64.378906 L 126.539062 64.378906 L 126.539062 71.671875 L 136.441406 71.671875 L 136.441406 75.824219 L 126.539062 75.824219 L 126.539062 85.230469 L 139.996094 85.230469 L 139.996094 89.460938 Z M 150.765625 114.765625 C 150.765625 113.296875 150.496094 111.898438 149.953125 110.578125 C 149.414062 109.261719 148.648438 108.074219 147.644531 107.039062 C 146.65625 106.019531 145.53125 105.238281 144.238281 104.683594 C 142.949219 104.128906 141.585938 103.859375 140.160156 103.859375 C 138.734375 103.859375 137.371094 104.128906 136.066406 104.671875 C 134.773438 105.210938 133.621094 106.003906 132.613281 107.039062 C 131.609375 108.058594 130.84375 109.230469 130.304688 110.550781 C 129.78125 111.871094 129.511719 113.28125 129.511719 114.765625 C 129.511719 116.234375 129.78125 117.628906 130.304688 118.933594 C 130.828125 120.238281 131.609375 121.425781 132.613281 122.445312 C 133.621094 123.480469 134.761719 124.273438 136.050781 124.816406 C 137.324219 125.355469 138.703125 125.625 140.144531 125.625 C 141.570312 125.625 142.90625 125.355469 144.195312 124.816406 C 145.46875 124.273438 146.625 123.480469 147.644531 122.445312 C 148.648438 121.410156 149.414062 120.238281 149.953125 118.921875 C 150.496094 117.601562 150.765625 116.21875 150.765625 114.765625 Z M 155.683594 114.765625 C 155.683594 116.835938 155.296875 118.785156 154.53125 120.628906 C 153.75 122.476562 152.625 124.125 151.140625 125.566406 C 149.640625 127.003906 147.960938 128.113281 146.070312 128.878906 C 144.195312 129.644531 142.214844 130.035156 140.160156 130.035156 C 138.058594 130.035156 136.066406 129.644531 134.160156 128.878906 C 132.253906 128.101562 130.589844 127.003906 129.121094 125.566406 C 127.636719 124.125 126.511719 122.488281 125.746094 120.644531 C 124.980469 118.816406 124.589844 116.863281 124.589844 114.765625 C 124.589844 112.679688 124.980469 110.730469 125.746094 108.886719 C 126.511719 107.039062 127.636719 105.390625 129.121094 103.933594 C 130.605469 102.496094 132.285156 101.386719 134.175781 100.636719 C 136.050781 99.886719 138.046875 99.496094 140.160156 99.496094 C 142.246094 99.496094 144.226562 99.871094 146.113281 100.636719 C 147.988281 101.386719 149.671875 102.480469 151.15625 103.933594 C 152.640625 105.40625 153.765625 107.070312 154.546875 108.914062 C 155.296875 110.761719 155.683594 112.710938 155.683594 114.765625 Z M 121.230469 105.886719 C 120.449219 105.390625 119.625 104.984375 118.800781 104.65625 C 117.300781 104.085938 115.738281 103.800781 114.089844 103.800781 C 110.910156 103.800781 108.328125 104.820312 106.335938 106.859375 C 104.339844 108.898438 103.335938 111.539062 103.335938 114.796875 C 103.335938 117.929688 104.308594 120.523438 106.246094 122.566406 C 108.179688 124.605469 110.640625 125.625 113.59375 125.625 C 115.320312 125.625 116.953125 125.324219 118.515625 124.710938 C 119.28125 124.410156 120.015625 124.035156 120.75 123.585938 C 121.726562 125.128906 122.984375 127.171875 122.984375 127.289062 C 121.710938 128.203125 120.328125 128.894531 118.828125 129.34375 C 117.328125 129.796875 115.710938 130.019531 113.96875 130.019531 C 111.75 130.019531 109.679688 129.660156 107.804688 128.925781 C 105.914062 128.191406 104.25 127.125 102.824219 125.699219 C 101.398438 124.304688 100.320312 122.671875 99.554688 120.78125 C 98.789062 118.890625 98.414062 116.878906 98.414062 114.75 C 98.414062 112.621094 98.789062 110.609375 99.554688 108.734375 C 100.320312 106.859375 101.414062 105.210938 102.871094 103.800781 C 104.308594 102.375 105.976562 101.28125 107.835938 100.546875 C 109.710938 99.808594 111.71875 99.433594 113.894531 99.433594 C 115.605469 99.433594 117.226562 99.691406 118.785156 100.183594 C 120.34375 100.695312 121.84375 101.445312 123.300781 102.449219 C 123.285156 102.570312 122.160156 104.386719 121.230469 105.886719 Z M 222.660156 89.460938 L 222.660156 60.34375 L 240.839844 60.34375 L 240.839844 64.378906 L 227.386719 64.378906 L 227.386719 71.671875 L 237.285156 71.671875 L 237.285156 75.824219 L 227.386719 75.824219 L 227.386719 85.230469 L 240.839844 85.230469 L 240.839844 89.460938 Z M 181.46875 64.5 L 181.46875 77.144531 L 187.425781 77.144531 C 189.136719 77.144531 190.695312 76.441406 191.820312 75.316406 C 192.945312 74.191406 193.648438 72.628906 193.648438 70.921875 L 193.648438 70.710938 C 193.648438 69 192.945312 67.441406 191.820312 66.316406 C 190.695312 65.191406 189.136719 64.484375 187.425781 64.484375 L 181.46875 64.484375 Z M 176.761719 60.34375 L 187.441406 60.34375 C 190.289062 60.34375 192.886719 61.515625 194.761719 63.390625 L 194.773438 63.40625 C 196.648438 65.28125 197.820312 67.875 197.820312 70.726562 L 197.820312 70.933594 C 197.820312 73.785156 196.648438 76.378906 194.773438 78.253906 L 194.761719 78.269531 C 192.886719 80.144531 190.289062 81.316406 187.441406 81.316406 L 181.484375 81.316406 L 181.484375 89.476562 L 176.773438 89.476562 L 176.773438 60.34375 Z M 199.933594 104.296875 L 199.933594 116.941406 L 205.890625 116.941406 C 207.601562 116.941406 209.160156 116.234375 210.285156 115.109375 C 211.410156 113.984375 212.113281 112.425781 212.113281 110.714844 L 212.113281 110.503906 C 212.113281 108.796875 211.410156 107.234375 210.285156 106.109375 C 209.160156 104.984375 207.601562 104.296875 205.890625 104.296875 Z M 195.226562 100.140625 L 205.90625 100.140625 C 208.753906 100.140625 211.351562 101.308594 213.226562 103.183594 L 213.238281 103.199219 C 215.113281 105.074219 216.285156 107.671875 216.285156 110.519531 L 216.285156 110.730469 C 216.285156 113.578125 215.113281 116.175781 213.238281 118.050781 L 213.226562 118.050781 C 211.351562 119.925781 208.753906 121.09375 205.90625 121.09375 L 199.949219 121.09375 L 199.949219 129.253906 L 195.238281 129.253906 L 195.238281 100.140625 Z M 247.214844 84.570312 C 248.746094 84.570312 249.976562 85.816406 249.976562 87.328125 C 249.976562 88.859375 248.730469 90.089844 247.214844 90.089844 C 245.699219 90.089844 244.453125 88.84375 244.453125 87.328125 C 244.441406 85.816406 245.683594 84.570312 247.214844 84.570312 Z M 98.414062 60.34375 L 109.09375 60.34375 C 111.945312 60.34375 114.523438 61.515625 116.414062 63.390625 L 116.429688 63.40625 C 118.304688 65.28125 119.476562 67.875 119.476562 70.726562 L 119.476562 70.933594 C 119.476562 73.785156 118.304688 76.378906 116.429688 78.253906 L 116.414062 78.269531 C 114.539062 80.144531 111.945312 81.316406 109.09375 81.316406 L 103.140625 81.316406 L 103.140625 89.476562 L 98.429688 89.476562 L 98.429688 60.34375 Z M 81.613281 20.699219 L 4.621094 20.699219 L 4.621094 24.734375 L 81.613281 24.734375 Z M 81.613281 20.699219 "/>
</g>
</svg>
